<?xml version="1.0" encoding="utf-8"?>
<!-- Generator: Adobe Illustrator 16.0.0, SVG Export Plug-In . SVG Version: 6.00 Build 0)  -->
<!DOCTYPE svg PUBLIC "-//W3C//DTD SVG 1.1//EN" "http://www.w3.org/Graphics/SVG/1.1/DTD/svg11.dtd">
<svg version="1.1" id="Layer_1" xmlns="http://www.w3.org/2000/svg" xmlns:xlink="http://www.w3.org/1999/xlink" x="0px" y="0px"
	 width="3000px" height="3000px" viewBox="0 0 3000 3000" enable-background="new 0 0 3000 3000" xml:space="preserve">
<g>
	<path fill="#1ABCFE" d="M1500,1500c0-251.392,203.792-455.184,455.185-455.184c251.391,0,455.184,203.792,455.184,455.184
		s-203.793,455.185-455.184,455.185C1703.792,1955.185,1500,1751.392,1500,1500z"/>
	<path fill="#0ACF83" d="M589.632,2410.368c0-251.392,203.792-455.184,455.184-455.184H1500v455.184
		c0,251.392-203.793,455.185-455.185,455.185S589.632,2661.76,589.632,2410.368z"/>
	<path fill="#FF7262" d="M1500,134.447v910.369h455.185c251.391,0,455.184-203.793,455.184-455.185
		c0-251.391-203.793-455.184-455.184-455.184H1500z"/>
	<path fill="#F24E1E" d="M589.632,589.631c0,251.392,203.792,455.185,455.184,455.185H1500V134.447h-455.185
		C793.424,134.447,589.632,338.24,589.632,589.631z"/>
	<path fill="#A259FF" d="M589.632,1500c0,251.392,203.792,455.185,455.184,455.185H1500v-910.369h-455.185
		C793.424,1044.816,589.632,1248.608,589.632,1500z"/>
</g>
</svg>
